<svg height="512pt" viewBox="0 -56 512 512" width="512pt" xmlns="http://www.w3.org/2000/svg"><path d="m462 160h-67.453125c-5.523437 0-10 4.476562-10 10s4.476563 10 10 10h67.453125c5.523438 0 10-4.476562 10-10s-4.476562-10-10-10zm0 0"/><path d="m502 0h-492c-5.523438 0-10 4.476562-10 10v280c0 5.523438 4.476562 10 10 10h202.359375l97.070313 97.070312c1.914062 1.914063 4.46875 2.929688 7.074218 2.929688 1.285156 0 2.585938-.25 3.824219-.761719 3.734375-1.546875 6.171875-5.191406 6.171875-9.238281v-90h175.5c5.523438 0 10-4.476562 10-10v-280c0-5.523438-4.476562-10-10-10zm-10 280h-175.5c-5.523438 0-10 4.476562-10 10v75.855469l-82.929688-82.925781c-1.875-1.875-4.417968-2.929688-7.070312-2.929688h-196.5v-260h472zm0 0"/><path d="m43.765625 138.933594 42.777344 34.101562s-15.589844 54.175782-15.59375 54.199219c-2.527344 8.78125 7.867187 16.425781 15.515625 10.835937l43.535156-31.855468s43.503906 31.832031 43.539062 31.855468c7.394532 5.410157 18.132813-1.742187 15.515626-10.835937l-15.597657-54.203125s42.691407-34.027344 42.777344-34.097656c7.117187-5.675782 3.085937-17.621094-6.019531-17.816406l-53.160156-1.140626s-17.539063-53.054687-17.558594-53.117187c-2.847656-8.605469-16.027344-8.957031-18.988282 0l-17.5625 53.117187s-53.035156 1.136719-53.160156 1.140626c-8.902344.191406-13.039062 12.21875-6.019531 17.816406zm66.671875.886718c4.234375-.089843 7.953125-2.835937 9.28125-6.855468l10.28125-31.105469 10.28125 31.105469c1.328125 4.019531 5.046875 6.765625 9.28125 6.855468l32.59375.699219-26.390625 21.039063c-3.160156 2.519531-4.496094 6.699218-3.375 10.582031l9.355469 32.519531-25.84375-18.90625c-1.757813-1.285156-3.832032-1.929687-5.902344-1.929687-2.074219 0-4.148438.644531-5.90625 1.929687l-25.839844 18.90625 9.355469-32.519531c1.117187-3.882813-.214844-8.0625-3.378906-10.582031l-26.390625-21.039063zm0 0"/><path d="m317.453125 100h77.09375c5.523437 0 10-4.476562 10-10s-4.476563-10-10-10h-77.09375c-5.519531 0-10 4.476562-10 10s4.480469 10 10 10zm0 0"/><path d="m460 140c5.511719 0 10-4.488281 10-10s-4.488281-10-10-10c-5.519531 0-10 4.488281-10 10s4.480469 10 10 10zm0 0"/><path d="m365 130c0 5.511719 4.488281 10 10 10h45c5.511719 0 10-4.488281 10-10s-4.488281-10-10-10h-45c-5.511719 0-10 4.488281-10 10zm0 0"/><path d="m250 140h45c5.511719 0 10-4.488281 10-10s-4.488281-10-10-10h-45c-5.511719 0-10 4.488281-10 10s4.488281 10 10 10zm0 0"/><path d="m325 130c0 5.511719 4.480469 10 10 10 5.511719 0 10-4.488281 10-10s-4.488281-10-10-10c-5.519531 0-10 4.488281-10 10zm0 0"/><path d="m250 220h90c5.511719 0 10-4.488281 10-10s-4.488281-10-10-10h-90c-5.511719 0-10 4.488281-10 10s4.488281 10 10 10zm0 0"/><path d="m380 200c-5.511719 0-10 4.488281-10 10s4.488281 10 10 10 10-4.488281 10-10-4.488281-10-10-10zm0 0"/><path d="m250 180h106c5.523438 0 10-4.476562 10-10s-4.476562-10-10-10h-106c-5.523438 0-10 4.476562-10 10s4.476562 10 10 10zm0 0"/></svg>